<?xml version="1.0" encoding="UTF-8"?>
<svg id="Livello_2" data-name="Livello 2" xmlns="http://www.w3.org/2000/svg" viewBox="0 0 295.11 295.11">
  <defs>
    <style>
      .cls-1 {
        fill: #fff;
        stroke-width: 0px;
      }
    </style>
  </defs>
  <g id="Livello_1-2" data-name="Livello 1">
    <path class="cls-1" d="M152.06,4.69l-4,82.35c-.01.28-.25.49-.53.48-.26-.01-.46-.22-.48-.48l-4-82.35c-.06-6.23,9.04-6.27,9,0h0Z"/>
    <path class="cls-1" d="M49.71,43.35l76.64,82.29c.19.2.18.52-.03.71-.19.18-.49.18-.68,0L43.35,49.71c-4.34-4.33,1.98-10.73,6.36-6.36h0Z"/>
    <path class="cls-1" d="M71.92,26.26s58.22,94.34,58.22,94.34c.15.24.07.54-.16.69-.22.14-.52.08-.67-.13L64.44,31.26c-3.42-5.09,4.04-10.14,7.48-5h0Z"/>
    <path class="cls-1" d="M97.04,13.84l36.92,99.57c.1.26-.04.55-.3.64-.25.09-.52-.03-.63-.26L88.72,17.28c-2.37-5.67,5.95-9.17,8.31-3.44h0Z"/>
    <path class="cls-1" d="M124.1,6.55l15.33,97.59c.04.27-.14.53-.42.57-.26.04-.5-.13-.57-.38L115.27,8.31c-1.22-6.05,7.61-7.86,8.83-1.76h0Z"/>
    <path class="cls-1" d="M251.76,49.71l-82.29,76.64c-.2.19-.52.18-.71-.03-.18-.19-.18-.49,0-.68l76.64-82.29c4.33-4.34,10.73,1.98,6.36,6.36h0Z"/>
    <path class="cls-1" d="M230.67,31.26l-64.87,89.89c-.16.22-.48.28-.7.11-.21-.15-.27-.45-.13-.67l58.22-94.34c3.4-5.11,10.92-.15,7.48,5h0Z"/>
    <path class="cls-1" d="M206.39,17.28l-44.3,96.51c-.12.25-.41.36-.67.25-.24-.11-.35-.39-.26-.63L198.07,13.84c2.35-5.69,10.67-2.3,8.31,3.44h0Z"/>
    <path class="cls-1" d="M179.84,8.31l-23.18,96.03c-.07.27-.34.43-.61.37-.26-.06-.42-.31-.38-.57l15.33-97.59c1.19-6.06,10.04-4.35,8.83,1.76h0Z"/>
    <path class="cls-1" d="M4.69,143.06l82.35,4c.28.01.49.25.48.53-.01.26-.22.46-.48.48l-82.35,4c-6.23.06-6.27-9.04,0-9h0Z"/>
    <path class="cls-1" d="M49.71,43.35l76.64,82.29c.19.2.18.52-.03.71-.19.18-.49.18-.68,0L43.35,49.71c-4.34-4.33,1.98-10.73,6.36-6.36h0Z"/>
    <path class="cls-1" d="M31.26,64.44l89.89,64.87c.22.16.28.48.11.7-.15.21-.45.27-.67.13L26.26,71.92c-5.11-3.4-.15-10.92,5-7.48h0Z"/>
    <path class="cls-1" d="M17.28,88.72l96.51,44.3c.25.12.36.41.25.67-.11.24-.39.35-.63.26L13.84,97.04c-5.69-2.35-2.3-10.67,3.44-8.31h0Z"/>
    <path class="cls-1" d="M8.31,115.27l96.03,23.18c.27.07.43.34.37.61-.06.26-.31.42-.57.38L6.55,124.1c-6.06-1.19-4.35-10.04,1.76-8.83h0Z"/>
    <path class="cls-1" d="M43.35,245.4l82.29-76.64c.2-.19.52-.18.71.03.18.19.18.49,0,.68l-76.64,82.29c-4.33,4.34-10.73-1.98-6.36-6.36h0Z"/>
    <path class="cls-1" d="M26.26,223.19l94.34-58.22c.24-.15.54-.07.69.16.14.22.08.52-.13.67L31.26,230.67c-5.09,3.42-10.14-4.04-5-7.48h0Z"/>
    <path class="cls-1" d="M13.84,198.07l99.57-36.92c.26-.1.55.04.64.3.09.25-.03.52-.26.63l-96.51,44.3c-5.67,2.37-9.17-5.95-3.44-8.31h0Z"/>
    <path class="cls-1" d="M6.55,171.01l97.59-15.33c.27-.04.53.14.57.42.04.26-.13.5-.38.57l-96.03,23.18c-6.05,1.22-7.86-7.61-1.76-8.83h0Z"/>
    <path class="cls-1" d="M290.42,152.06l-82.35-4c-.28-.01-.49-.25-.48-.53.01-.26.22-.46.48-.48l82.35-4c6.23-.06,6.27,9.04,0,9h0Z"/>
    <path class="cls-1" d="M251.76,49.71l-82.29,76.64c-.2.19-.52.18-.71-.03-.18-.19-.18-.49,0-.68l76.64-82.29c4.33-4.34,10.73,1.98,6.36,6.36h0Z"/>
    <path class="cls-1" d="M268.85,71.92l-94.34,58.22c-.24.15-.54.07-.69-.16-.14-.22-.08-.52.13-.67l89.89-64.87c5.09-3.42,10.14,4.04,5,7.48h0Z"/>
    <path class="cls-1" d="M281.27,97.04l-99.57,36.92c-.26.1-.55-.04-.64-.3-.09-.25.03-.52.26-.63l96.51-44.3c5.67-2.37,9.17,5.95,3.44,8.31h0Z"/>
    <path class="cls-1" d="M288.56,124.1l-97.59,15.33c-.27.04-.53-.14-.57-.42-.04-.26.13-.5.38-.57l96.03-23.18c6.05-1.22,7.86,7.61,1.76,8.83h0Z"/>
    <path class="cls-1" d="M245.4,251.76l-76.64-82.29c-.19-.2-.18-.52.03-.71.19-.18.49-.18.68,0l82.29,76.64c4.34,4.33-1.98,10.73-6.36,6.36h0Z"/>
    <path class="cls-1" d="M263.85,230.67l-89.89-64.87c-.22-.16-.28-.48-.11-.7.15-.21.45-.27.67-.13l94.34,58.22c5.11,3.4.15,10.92-5,7.48h0Z"/>
    <path class="cls-1" d="M277.83,206.39l-96.51-44.3c-.25-.12-.36-.41-.25-.67.11-.24.39-.35.63-.26l99.57,36.92c5.69,2.35,2.3,10.67-3.44,8.31h0Z"/>
    <path class="cls-1" d="M286.8,179.84l-96.03-23.18c-.27-.07-.43-.34-.37-.61.06-.26.31-.42.57-.38l97.59,15.33c6.06,1.19,4.35,10.04-1.76,8.83h0Z"/>
    <path class="cls-1" d="M143.06,290.42l4-82.35c.01-.28.25-.49.53-.48.26.01.46.22.48.48l4,82.35c.06,6.23-9.04,6.27-9,0h0Z"/>
    <path class="cls-1" d="M43.35,245.4l82.29-76.64c.2-.19.52-.18.71.03.18.19.18.49,0,.68l-76.64,82.29c-4.33,4.34-10.73-1.98-6.36-6.36h0Z"/>
    <path class="cls-1" d="M64.44,263.85l64.87-89.89c.16-.22.48-.28.7-.11.21.15.27.45.13.67l-58.22,94.34c-3.4,5.11-10.92.15-7.48-5h0Z"/>
    <path class="cls-1" d="M88.72,277.83l44.3-96.51c.12-.25.41-.36.67-.25.24.11.35.39.26.63l-36.92,99.57c-2.35,5.69-10.67,2.3-8.31-3.44h0Z"/>
    <path class="cls-1" d="M115.27,286.8l23.18-96.03c.07-.27.34-.43.61-.37.26.06.42.31.38.57l-15.33,97.59c-1.19,6.06-10.04,4.35-8.83-1.76h0Z"/>
    <path class="cls-1" d="M245.4,251.76l-76.64-82.29c-.19-.2-.18-.52.03-.71.19-.18.49-.18.68,0l82.29,76.64c4.34,4.33-1.98,10.73-6.36,6.36h0Z"/>
    <path class="cls-1" d="M223.19,268.85l-58.22-94.34c-.15-.24-.07-.54.16-.69.22-.14.52-.08.67.13l64.87,89.89c3.42,5.09-4.04,10.14-7.48,5h0Z"/>
    <path class="cls-1" d="M198.07,281.27l-36.92-99.57c-.1-.26.04-.55.3-.64.25-.09.52.03.63.26l44.3,96.51c2.37,5.67-5.95,9.17-8.31,3.44h0Z"/>
    <path class="cls-1" d="M171.01,288.56l-15.33-97.59c-.04-.27.14-.53.42-.57.26-.04.5.13.57.38l23.18,96.03c1.22,6.05-7.61,7.86-8.83,1.76h0Z"/>
  </g>
</svg>