<?xml version="1.0" encoding="UTF-8"?>
<svg id="Livello_2" data-name="Livello 2" xmlns="http://www.w3.org/2000/svg" viewBox="0 0 445.14 463.2">
  <defs>
    <style>
      .cls-1 {
        fill: #ff864a;
      }
    </style>
  </defs>
  <g id="Livello_1-2" data-name="Livello 1">
    <path class="cls-1" d="M0,235c89.1,0,218.21,55.13,218.21,228.21h8.73c0-173.08,129.1-228.21,218.21-228.21v-6.79c-89.1,0-218.21-55.13-218.21-228.21h-8.73c0,173.08-129.1,228.21-218.21,228.21v6.79Z"/>
    <path class="cls-1" d="M269.58,92.68c35.14,0,86.06,21.74,86.06,90h3.44c0-68.26,50.92-90,86.06-90v-2.68c-35.14,0-86.06-21.74-86.06-90h-3.44c0,68.26-50.92,90-86.06,90v2.68Z"/>
    <path class="cls-1" d="M0,373.2c35.14,0,86.06,21.74,86.06,90h3.44c0-68.26,50.92-90,86.06-90v-2.68c-35.14,0-86.06-21.74-86.06-90h-3.44c0,68.26-50.92,90-86.06,90v2.68Z"/>
  </g>
</svg>